<svg width="27" height="27" viewBox="0 0 27 27" fill="none" xmlns="http://www.w3.org/2000/svg">
<g clip-path="url(#clip0)">
<path d="M26.8076 12.9832C26.7471 12.9129 25.2967 11.2446 22.9473 9.561C21.5614 8.56811 20.1474 7.77544 18.7446 7.20525C16.9681 6.48324 15.2036 6.11719 13.5 6.11719C11.7964 6.11719 10.0317 6.48324 8.25521 7.20525C6.85239 7.77544 5.43845 8.56811 4.05272 9.561C1.70316 11.2446 0.252755 12.9129 0.192192 12.9832C-0.0640641 13.28 -0.0640641 13.72 0.192192 14.0169C0.252755 14.0871 1.70316 15.7554 4.05272 17.4388C5.43845 18.4319 6.85239 19.2246 8.25521 19.7946C10.0317 20.5168 11.7964 20.8828 13.5 20.8828C15.2036 20.8828 16.9681 20.5168 18.7446 19.7946C20.1476 19.2246 21.5614 18.4319 22.9473 17.4388C25.2967 15.7554 26.7471 14.0871 26.8076 14.0169C27.0641 13.72 27.0641 13.28 26.8076 12.9832ZM19.3008 13.5C19.3008 16.6985 16.6985 19.3008 13.5 19.3008C13.444 19.3008 13.3882 19.2992 13.3323 19.2981C10.2109 19.2091 7.69923 16.6425 7.69923 13.5C7.69923 10.3013 10.3013 7.69922 13.5 7.69922C13.556 7.69922 13.6119 7.70087 13.6677 7.70169C16.7889 7.79089 19.3008 10.3576 19.3008 13.5ZM1.87454 13.5C2.46389 12.8985 3.56102 11.856 5.00524 10.8248C5.83807 10.2301 6.63754 9.74474 7.39868 9.34821C6.59057 10.5321 6.1172 11.9617 6.1172 13.5C6.1172 15.0376 6.59036 16.4663 7.39786 17.65C6.49375 17.1785 5.68564 16.661 5.00524 16.1753C3.56102 15.1441 2.46369 14.1013 1.87454 13.5ZM21.9946 16.1753C21.1616 16.77 20.3619 17.2555 19.6007 17.652C20.4091 16.4682 20.8828 15.0386 20.8828 13.5C20.8828 11.9625 20.4099 10.5337 19.6026 9.35027C20.5065 9.82158 21.3144 10.339 21.9946 10.8248C23.4388 11.856 24.5359 12.8985 25.1253 13.5C24.5359 14.1015 23.4388 15.1441 21.9946 16.1753Z" fill="white"/>
<path d="M11.127 13.499C11.127 14.8074 12.1915 15.872 13.5 15.872C14.8085 15.872 15.8731 14.8074 15.8731 13.499C15.8731 12.1905 14.8085 11.1259 13.5 11.1259C12.1913 11.1259 11.127 12.1905 11.127 13.499ZM14.291 13.499C14.291 13.9351 13.9363 14.29 13.5 14.29C13.0637 14.29 12.709 13.9351 12.709 13.499C12.709 13.0629 13.0637 12.7079 13.5 12.7079C13.9361 12.7079 14.291 13.0629 14.291 13.499Z" fill="white"/>
</g>
<defs>
<clipPath id="clip0">
<rect width="27" height="27" fill="white"/>
</clipPath>
</defs>
</svg>
