<svg width="14" height="13" viewBox="0 0 14 13" fill="none" xmlns="http://www.w3.org/2000/svg">
<path d="M11.1532 3.62776C11.2995 3.86108 11.4133 3.91162 11.4303 3.72713L11.4611 3.39242C11.5053 2.91246 11.9302 2.55919 12.4101 2.60336C12.8901 2.64754 13.2434 3.07243 13.1992 3.5524L12.925 6.532C12.8808 7.01196 12.4559 7.36524 11.9759 7.32106L8.99633 7.04682C8.51637 7.00264 8.16309 6.57775 8.20727 6.09778C8.25145 5.61782 8.67634 5.26454 9.15631 5.30872C9.15631 5.30872 9.30007 5.32195 9.47761 5.33829C9.65514 5.35463 9.72372 5.15636 9.59434 4.91333C9.00671 3.81081 7.89483 3.05542 6.62875 2.93889C4.57035 2.74944 2.74169 4.26985 2.55223 6.32826C2.3628 8.38641 3.88321 10.2151 5.94162 10.4045C6.49011 10.455 6.89389 10.9406 6.84341 11.4891C6.79292 12.0376 6.30729 12.4414 5.75879 12.3909C2.60511 12.1009 0.275574 9.29909 0.565811 6.14568C0.856072 2.99202 3.6579 0.662482 6.81156 0.952742C8.61448 1.11843 10.2139 2.12978 11.1532 3.62776Z" fill="#C4C4C4"/>
</svg>
