<?xml version="1.0" encoding="utf-8"?>
<!-- Generator: Adobe Illustrator 23.0.3, SVG Export Plug-In . SVG Version: 6.00 Build 0)  -->
<svg version="1.1" id="Layer_1" xmlns="http://www.w3.org/2000/svg" xmlns:xlink="http://www.w3.org/1999/xlink" x="0px" y="0px"
	 viewBox="0 0 390.9 187.6" style="enable-background:new 0 0 390.9 187.6;" xml:space="preserve">
<style type="text/css">
	.st0{fill:#000;}
</style>
<g>
	<g>
		<path class="st0" d="M83.3,75c-0.4-22.3-18.9-40.2-41.7-40.2C18.9,34.8,0.4,52.7,0,75h0v55.9h23.6V75h0
			c0.4-9.7,8.3-17.4,18.1-17.4c9.8,0,17.7,7.7,18.1,17.4h0v55.9h23.6L83.3,75L83.3,75z"/>
		<path class="st0" d="M347.9,75c-0.4-22.3-17.8-40.2-39.3-40.2c-11.1,0-21.1,4.8-28.2,12.4c-7.1-7.7-17.1-12.4-28.2-12.4
			c-21.5,0-38.9,17.9-39.3,40.2h0v55.9h22.2V75h0c0.4-9.7,7.9-17.4,17.1-17.4c9.2,0,16.7,7.7,17.1,17.4h0h0v55.9h0h22.2h0V75h0h0
			c0.4-9.7,7.9-17.4,17.1-17.4c9.2,0,16.7,7.7,17.1,17.4h0v55.9h22.2L347.9,75L347.9,75z"/>
		<path class="st0" d="M148.8,34.8c-27.1,0-49,21.9-49,49c0,27.1,21.9,49,49,49c27.1,0,49-21.9,49-49S175.8,34.8,148.8,34.8z
			 M148.8,110.3c-14.6,0-26.5-11.9-26.5-26.5c0-14.6,11.9-26.5,26.5-26.5c14.6,0,26.5,11.9,26.5,26.5
			C175.3,98.4,163.4,110.3,148.8,110.3z"/>
		<rect x="364.4" y="38.6" class="st0" width="23.3" height="92.3"/>
		<path class="st0" d="M390.9,14.8c0,8.2-6.6,14.8-14.8,14.8c-8.2,0-14.8-6.6-14.8-14.8C361.2,6.6,367.8,0,376,0
			C384.2,0,390.9,6.6,390.9,14.8z"/>
	</g>
</g>
<g>
	<path class="st0" d="M0,178.8v-33.2h3.1V159c1.3-1.6,2.7-2.8,4.3-3.6c1.6-0.8,3.4-1.2,5.3-1.2c3.4,0,6.3,1.2,8.7,3.7
		c2.4,2.5,3.6,5.4,3.6,9c0,3.5-1.2,6.4-3.6,8.9c-2.4,2.5-5.3,3.7-8.7,3.7c-2,0-3.7-0.4-5.3-1.3c-1.6-0.8-3-2.1-4.2-3.8v4.4H0z
		 M12.4,176.4c1.7,0,3.3-0.4,4.7-1.3c1.4-0.8,2.6-2,3.5-3.6c0.9-1.5,1.3-3.1,1.3-4.8c0-1.7-0.4-3.3-1.3-4.9c-0.9-1.5-2-2.7-3.5-3.6
		c-1.5-0.9-3-1.3-4.7-1.3c-1.7,0-3.3,0.4-4.8,1.3s-2.7,2-3.5,3.5c-0.8,1.5-1.2,3.1-1.2,4.9c0,2.8,0.9,5.1,2.7,7
		C7.5,175.5,9.7,176.4,12.4,176.4z"/>
	<path class="st0" d="M28.3,154.8h3.3l8.2,18.4l8-18.4h3.3l-14.3,32.7h-3.3l4.6-10.6L28.3,154.8z"/>
	<path class="st0" d="M88.2,170.9l2.6,1.4c-0.9,1.7-1.8,3-3,4.1c-1.1,1-2.4,1.8-3.8,2.3c-1.4,0.5-3,0.8-4.7,0.8
		c-3.9,0-7-1.3-9.2-3.8c-2.2-2.6-3.3-5.5-3.3-8.7c0-3,0.9-5.7,2.8-8.1c2.4-3,5.5-4.5,9.5-4.5c4.1,0,7.3,1.5,9.8,4.6
		c1.7,2.2,2.6,4.9,2.6,8.2H70.1c0.1,2.8,0.9,5.1,2.7,6.8c1.7,1.8,3.8,2.7,6.4,2.7c1.2,0,2.4-0.2,3.6-0.6c1.2-0.4,2.1-1,2.9-1.7
		C86.4,173.5,87.3,172.4,88.2,170.9z M88.2,164.4c-0.4-1.6-1-3-1.8-3.9c-0.8-1-1.8-1.8-3.1-2.4c-1.3-0.6-2.7-0.9-4.1-0.9
		c-2.4,0-4.4,0.8-6.1,2.3c-1.2,1.1-2.2,2.8-2.8,5H88.2z"/>
	<path class="st0" d="M95.4,154.8h3.3l8,17.5l7.9-17.5h3.3l-11,24h-0.6L95.4,154.8z"/>
	<path class="st0" d="M134.2,154.2c3.7,0,6.7,1.3,9.2,4c2.2,2.4,3.3,5.3,3.3,8.7c0,3.3-1.2,6.3-3.5,8.8c-2.3,2.5-5.3,3.8-9,3.8
		c-3.7,0-6.7-1.3-9-3.8c-2.3-2.5-3.5-5.4-3.5-8.8c0-3.3,1.1-6.2,3.3-8.6C127.5,155.6,130.5,154.2,134.2,154.2z M134.2,157.2
		c-2.6,0-4.8,0.9-6.6,2.8c-1.8,1.9-2.8,4.2-2.8,6.9c0,1.7,0.4,3.3,1.3,4.8c0.8,1.5,2,2.7,3.4,3.5c1.4,0.8,3,1.2,4.7,1.2
		c1.7,0,3.3-0.4,4.7-1.2c1.4-0.8,2.6-2,3.4-3.5c0.8-1.5,1.3-3.1,1.3-4.8c0-2.7-0.9-5-2.8-6.9C139,158.2,136.8,157.2,134.2,157.2z"/>
	<path class="st0" d="M152.7,154.8h3.1v4.1c1.1-1.5,2.2-2.6,3.3-3.3c1.6-0.9,3.2-1.4,4.9-1.4c1.2,0,2.3,0.2,3.3,0.7
		c1,0.5,1.9,1.1,2.6,1.8c0.7,0.8,1.2,1.8,1.7,3.2c1-1.9,2.3-3.3,3.8-4.3c1.5-1,3.2-1.5,5-1.5c1.7,0,3.1,0.4,4.4,1.3
		c1.3,0.8,2.2,2,2.8,3.5c0.6,1.5,0.9,3.7,0.9,6.7v13.1h-3.1v-13.1c0-2.6-0.2-4.3-0.5-5.3c-0.4-1-1-1.7-1.9-2.3
		c-0.9-0.6-1.9-0.9-3.2-0.9c-1.5,0-2.9,0.4-4.1,1.3c-1.2,0.9-2.1,2.1-2.7,3.5c-0.6,1.5-0.9,3.9-0.9,7.4v9.4H169v-12.3
		c0-2.9-0.2-4.9-0.5-5.9c-0.4-1-1-1.9-1.9-2.5c-0.9-0.6-2-0.9-3.2-0.9c-1.4,0-2.8,0.4-4,1.3c-1.2,0.9-2.2,2-2.8,3.5
		c-0.6,1.5-0.9,3.7-0.9,6.7v10.1h-3.1V154.8z"/>
	<path class="st0" d="M206.6,154.2c3.7,0,6.7,1.3,9.2,4c2.2,2.4,3.3,5.3,3.3,8.7c0,3.3-1.2,6.3-3.5,8.8c-2.3,2.5-5.3,3.8-9,3.8
		c-3.7,0-6.7-1.3-9-3.8c-2.3-2.5-3.5-5.4-3.5-8.8c0-3.3,1.1-6.2,3.3-8.6C199.8,155.6,202.9,154.2,206.6,154.2z M206.6,157.2
		c-2.6,0-4.8,0.9-6.6,2.8c-1.8,1.9-2.8,4.2-2.8,6.9c0,1.7,0.4,3.3,1.3,4.8c0.8,1.5,2,2.7,3.4,3.5c1.4,0.8,3,1.2,4.7,1.2
		c1.7,0,3.3-0.4,4.7-1.2c1.4-0.8,2.6-2,3.4-3.5c0.8-1.5,1.3-3.1,1.3-4.8c0-2.7-0.9-5-2.8-6.9C211.3,158.2,209.1,157.2,206.6,157.2z"
		/>
	<path class="st0" d="M222.8,154.8h3.3l8,17.5l7.9-17.5h3.3l-11,24h-0.6L222.8,154.8z"/>
	<path class="st0" d="M270.5,170.9l2.6,1.4c-0.9,1.7-1.8,3-3,4.1c-1.1,1-2.4,1.8-3.8,2.3c-1.4,0.5-3,0.8-4.7,0.8
		c-3.9,0-7-1.3-9.2-3.8c-2.2-2.6-3.3-5.5-3.3-8.7c0-3,0.9-5.7,2.8-8.1c2.4-3,5.5-4.5,9.5-4.5c4.1,0,7.3,1.5,9.8,4.6
		c1.7,2.2,2.6,4.9,2.6,8.2h-21.6c0.1,2.8,0.9,5.1,2.7,6.8c1.7,1.8,3.8,2.7,6.4,2.7c1.2,0,2.4-0.2,3.6-0.6c1.2-0.4,2.1-1,2.9-1.7
		C268.7,173.5,269.5,172.4,270.5,170.9z M270.5,164.4c-0.4-1.6-1-3-1.8-3.9c-0.8-1-1.8-1.8-3.1-2.4c-1.3-0.6-2.7-0.9-4.1-0.9
		c-2.4,0-4.4,0.8-6.1,2.3c-1.2,1.1-2.2,2.8-2.8,5H270.5z"/>
	<path class="st0" d="M283.3,174c0.7,0,1.4,0.3,1.9,0.8c0.5,0.5,0.8,1.2,0.8,1.9c0,0.7-0.3,1.4-0.8,1.9c-0.5,0.5-1.2,0.8-1.9,0.8
		s-1.4-0.3-1.9-0.8c-0.5-0.5-0.8-1.2-0.8-1.9c0-0.8,0.3-1.4,0.8-1.9C281.9,174.2,282.5,174,283.3,174z"/>
	<path class="st0" d="M315.9,159.8l-2.4,1.5c-2.1-2.8-5-4.2-8.6-4.2c-2.9,0-5.3,0.9-7.3,2.8c-1.9,1.9-2.9,4.2-2.9,6.8
		c0,1.7,0.4,3.4,1.3,4.9c0.9,1.5,2.1,2.7,3.7,3.6c1.5,0.9,3.3,1.3,5.2,1.3c3.5,0,6.4-1.4,8.6-4.2l2.4,1.6c-1.1,1.7-2.7,3.1-4.6,4
		c-1.9,1-4.1,1.4-6.6,1.4c-3.8,0-6.9-1.2-9.4-3.6c-2.5-2.4-3.7-5.3-3.7-8.8c0-2.3,0.6-4.5,1.8-6.5c1.2-2,2.8-3.5,4.8-4.7
		c2-1.1,4.3-1.7,6.8-1.7c1.6,0,3.1,0.2,4.6,0.7c1.5,0.5,2.7,1.1,3.8,1.9C314.3,157.6,315.2,158.6,315.9,159.8z"/>
	<path class="st0" d="M333.4,154.2c3.7,0,6.7,1.3,9.2,4c2.2,2.4,3.3,5.3,3.3,8.7c0,3.3-1.2,6.3-3.5,8.8c-2.3,2.5-5.3,3.8-9,3.8
		c-3.7,0-6.7-1.3-9-3.8c-2.3-2.5-3.5-5.4-3.5-8.8c0-3.3,1.1-6.2,3.3-8.6C326.7,155.6,329.7,154.2,333.4,154.2z M333.4,157.2
		c-2.6,0-4.8,0.9-6.6,2.8c-1.8,1.9-2.8,4.2-2.8,6.9c0,1.7,0.4,3.3,1.3,4.8c0.8,1.5,2,2.7,3.4,3.5c1.4,0.8,3,1.2,4.7,1.2
		c1.7,0,3.3-0.4,4.7-1.2c1.4-0.8,2.6-2,3.4-3.5c0.8-1.5,1.3-3.1,1.3-4.8c0-2.7-0.9-5-2.8-6.9C338.2,158.2,336,157.2,333.4,157.2z"/>
	<path class="st0" d="M351.9,154.8h3.1v4.1c1.1-1.5,2.2-2.6,3.3-3.3c1.6-0.9,3.2-1.4,4.9-1.4c1.2,0,2.3,0.2,3.3,0.7
		c1,0.5,1.9,1.1,2.6,1.8c0.7,0.8,1.2,1.8,1.7,3.2c1-1.9,2.3-3.3,3.8-4.3c1.5-1,3.2-1.5,5-1.5c1.7,0,3.1,0.4,4.4,1.3
		c1.3,0.8,2.2,2,2.8,3.5c0.6,1.5,0.9,3.7,0.9,6.7v13.1h-3.1v-13.1c0-2.6-0.2-4.3-0.5-5.3c-0.4-1-1-1.7-1.9-2.3
		c-0.9-0.6-1.9-0.9-3.2-0.9c-1.5,0-2.9,0.4-4.1,1.3c-1.2,0.9-2.1,2.1-2.7,3.5c-0.6,1.5-0.9,3.9-0.9,7.4v9.4h-3.1v-12.3
		c0-2.9-0.2-4.9-0.5-5.9c-0.4-1-1-1.9-1.9-2.5c-0.9-0.6-2-0.9-3.2-0.9c-1.4,0-2.8,0.4-4,1.3c-1.2,0.9-2.2,2-2.8,3.5
		c-0.6,1.5-0.9,3.7-0.9,6.7v10.1h-3.1V154.8z"/>
</g>
</svg>
